<?xml version="1.0" encoding="UTF-8" standalone="no"?>
<!-- Created with Inkscape (http://www.inkscape.org/) -->

<svg
   width="210mm"
   height="297mm"
   viewBox="0 0 210 297"
   version="1.1"
   id="svg1"
   xml:space="preserve"
   inkscape:version="1.3.2 (1:1.3.2+202311252150+091e20ef0f)"
   sodipodi:docname="art.svg"
   xmlns:inkscape="http://www.inkscape.org/namespaces/inkscape"
   xmlns:sodipodi="http://sodipodi.sourceforge.net/DTD/sodipodi-0.dtd"
   xmlns:xlink="http://www.w3.org/1999/xlink"
   xmlns="http://www.w3.org/2000/svg"
   xmlns:svg="http://www.w3.org/2000/svg"><sodipodi:namedview
     id="namedview1"
     pagecolor="#ffffff"
     bordercolor="#999999"
     borderopacity="1"
     inkscape:showpageshadow="2"
     inkscape:pageopacity="0"
     inkscape:pagecheckerboard="0"
     inkscape:deskcolor="#444444"
     inkscape:document-units="mm"
     inkscape:zoom="1.9578168"
     inkscape:cx="103.68692"
     inkscape:cy="87.597574"
     inkscape:window-width="1920"
     inkscape:window-height="972"
     inkscape:window-x="1360"
     inkscape:window-y="25"
     inkscape:window-maximized="1"
     inkscape:current-layer="layer1" /><defs
     id="defs1"><linearGradient
       id="linearGradient105"
       inkscape:collect="always"><stop
         style="stop-color:#11a400;stop-opacity:1;"
         offset="0.08988478"
         id="stop104" /><stop
         style="stop-color:#00fc45;stop-opacity:0;"
         offset="1"
         id="stop105" /></linearGradient><linearGradient
       inkscape:collect="always"
       xlink:href="#linearGradient105"
       id="linearGradient82"
       x1="38.08078"
       y1="29.915359"
       x2="13.954165"
       y2="4.1079278"
       gradientUnits="userSpaceOnUse" /></defs><g
     inkscape:label="Layer 1"
     inkscape:groupmode="layer"
     id="layer1"><g
       id="g109"
       transform="matrix(1.0778804,0,0,1.0778804,-1.034987,-0.62104422)"
       inkscape:export-filename="logo.svg"
       inkscape:export-xdpi="96"
       inkscape:export-ydpi="96"><path
         style="fill:url(#linearGradient82);fill-opacity:1;stroke-width:0;stroke-dasharray:none"
         d="m 35.723726,25.574842 -10.106899,6.346123 -1.963012,-0.291486 -9.50011,-5.481628 -0.322899,-1.364486 0.182639,-9.685038 0.867388,-1.219668 9.3352,-5.3442446 2.567634,0.2680388 6.354088,3.9788718 2.57629,1.868109 0.291182,9.080317 z"
         id="path81"
         inkscape:export-filename="logo.png"
         inkscape:export-xdpi="96"
         inkscape:export-ydpi="96" /><path
         style="fill:#00cc51;fill-opacity:1;stroke-width:0;stroke-dasharray:none"
         d="m 34.859158,13.27184 -1.827705,1.227328 -0.08654,2.060805 0.69941,2.299485 1.634485,0.900246 2.07586,-0.316402 1.680085,-1.349456 0.663329,-1.615741 -0.687033,-2.195239 -1.318831,-1.088512 z"
         id="path83"
         sodipodi:nodetypes="ccccccccccc" /><path
         style="fill:#f9f9f9;fill-opacity:1;stroke-width:0;stroke-dasharray:none"
         d="m 38.56864,14.652377 -0.762204,1.05849 -0.663032,0.924491 -0.499647,0.846887 c 0,0 -0.246875,0.38211 -0.39133,0.449681 -0.144454,0.06757 -0.585605,-0.04629 -0.585605,-0.04629 l -1.238723,-0.945735 -0.48141,-0.956061 0.175668,-0.515852 0.634251,-0.252977 0.683003,0.493529 0.352134,0.140259 0.990296,-1.211046 1.062982,-1.477218 1.168056,-1.090799 0.956273,-0.28946 0.791599,0.485099 0.05508,0.594449 -0.798833,0.664598 -0.553114,0.371205 z"
         id="path84" /><path
         style="fill:#333333;stroke:none;stroke-width:0;stroke-dasharray:none;stroke-opacity:1"
         d="m 36.048202,20.176435 c -1.08717,-0.122794 -1.855905,-0.468483 -2.521145,-1.133723 -1.05101,-1.051011 -1.408112,-2.429353 -0.977585,-3.773281 0.19079,-0.595566 0.304133,-0.81507 0.637334,-1.234275 0.589779,-0.742009 1.204937,-1.153976 2.039842,-1.366069 0.860968,-0.218713 1.750166,-0.190235 2.288122,0.07328 l 0.202142,0.09902 0.139059,-0.170986 c 0.506587,-0.622892 1.14186,-1.110587 1.632419,-1.253196 0.628187,-0.182619 1.408551,0.14884 1.582976,0.672367 0.126659,0.380162 0.0074,0.949776 -0.272881,1.3037 -0.0805,0.10164 -0.327032,0.308836 -0.547848,0.460436 -0.220816,0.151599 -0.472613,0.335357 -0.559549,0.408349 l -0.158064,0.132714 0.127486,0.269484 c 0.07012,0.148217 0.179355,0.470168 0.242748,0.715447 0.102773,0.397643 0.112968,0.513764 0.09409,1.071729 -0.0161,0.47583 -0.046,0.703511 -0.124802,0.950238 -0.466254,1.459792 -1.677594,2.515161 -3.13986,2.735573 -0.248998,0.03753 -0.473582,0.06524 -0.499077,0.06157 -0.0255,-0.0037 -0.10893,-0.01374 -0.185412,-0.02238 z m 0.899434,-0.879654 c 1.029998,-0.229494 1.830901,-1.015427 2.167387,-2.126875 0.06204,-0.204924 0.0842,-0.430607 0.0842,-0.857531 0,-0.574945 -0.04905,-0.844778 -0.234548,-1.29033 l -0.0644,-0.154679 -0.398381,0.502327 c -0.219109,0.27628 -0.50545,0.679628 -0.636312,0.896329 -0.409399,0.677941 -0.937285,1.450468 -1.158367,1.695194 -0.139485,0.154403 -0.274938,0.253821 -0.394712,0.289706 -0.244599,0.07328 -0.672885,0.06915 -0.858201,-0.0083 -0.17177,-0.07177 -1.349273,-1.328662 -1.61946,-1.728646 -0.218671,-0.323722 -0.240652,-0.567451 -0.08298,-0.920096 0.164151,-0.367132 0.582025,-0.668927 0.929229,-0.671101 0.348863,-0.0022 0.670544,0.159562 0.880402,0.442682 0.06373,0.08599 0.13067,0.156911 0.148742,0.157613 0.0356,0.0014 0.266771,-0.317148 0.655068,-0.902608 0.135268,-0.203954 0.385208,-0.537451 0.555421,-0.741106 0.170214,-0.203655 0.309479,-0.396017 0.309479,-0.427471 0,-0.100357 -0.506067,-0.212119 -0.973414,-0.214975 -0.695076,-0.0042 -1.242119,0.173645 -1.835012,0.596724 -0.321438,0.229373 -0.798778,0.752557 -0.940127,1.030416 -0.313862,0.616979 -0.417677,1.568268 -0.241305,2.21115 0.151934,0.553805 0.389817,0.965862 0.791228,1.370549 0.409875,0.413221 0.778574,0.647519 1.236905,0.786017 0.615619,0.186027 1.058912,0.203184 1.679156,0.06499 z m -0.885544,-1.892306 c 0.139118,-0.07416 0.482382,-0.536836 1.171338,-1.578807 0.252854,-0.382413 0.594964,-0.856102 0.760246,-1.052642 0.477696,-0.568039 1.201317,-1.177947 1.750033,-1.475024 0.427492,-0.231446 0.487373,-0.280015 0.584695,-0.474234 0.09552,-0.190628 0.101927,-0.236076 0.0538,-0.381886 -0.174164,-0.527722 -0.929824,-0.35074 -1.670975,0.391357 -0.606019,0.606792 -1.817726,2.164874 -2.406295,3.09415 -0.105281,0.166226 -0.243634,0.319079 -0.328565,0.362998 -0.144677,0.07481 -0.14936,0.07375 -0.338733,-0.07721 -0.105616,-0.08419 -0.271751,-0.226207 -0.369188,-0.31559 -0.369302,-0.33877 -0.519588,-0.388415 -0.77538,-0.25614 -0.159373,0.08242 -0.178338,0.223306 -0.06098,0.453054 0.08805,0.172383 0.92908,1.048046 1.194299,1.243486 0.20564,0.151535 0.26047,0.159903 0.435702,0.06649 z"
         id="path78" /><path
         style="fill:#f9f9f9;fill-opacity:1;stroke-width:0;stroke-dasharray:none"
         d="m 24.108401,26.334862 -0.276025,-1.65014 -0.75374,-0.863898 -2.979559,-1.618426 -4.238415,-2.260868 v -0.446187 l 2.329221,-1.279624 2.318439,-1.14927 1.815559,0.944039 5.368786,2.48262 1.148263,0.858211 0.19382,2.024177 -0.2931,0.789708 -2.494534,1.318418 -1.602337,1.200895 z"
         id="path90" /><path
         style="fill:#f9f9f9;fill-opacity:1;stroke-width:0;stroke-dasharray:none"
         d="m 31.287302,17.364076 -0.672725,0.9295 -0.758737,0.734855 -0.718214,-0.101041 -1.90889,-0.625197 -0.421156,-0.531944 0.121235,-0.878918 0.455263,-0.80325 0.935906,-0.295207 0.960421,0.172637 0.676987,0.231541 0.772406,0.375144 0.364194,0.211782 z"
         id="path91" /><path
         style="fill:#f9f9f9;fill-opacity:1;stroke-width:0;stroke-dasharray:none"
         d="m 27.111912,15.241172 -1.233162,-0.766374 -1.007404,-0.0031 -0.899704,0.546355 -0.227999,0.890091 0.0016,0.58447 0.768587,0.405426 0.901762,0.530549 1.072971,0.204129 0.474622,-1.087266 0.386652,-0.593801 z"
         id="path92" /><path
         style="fill:#f9f9f9;fill-opacity:1;stroke-width:0;stroke-dasharray:none"
         d="m 23.377344,26.549757 c -0.478408,-0.04003 -8.714087,-4.200892 -8.714087,-4.200892 l 0.03594,-1.792964 0.530361,-0.525133 0.728203,0.0995 2.556596,1.203313 3.974111,2.118901 0.80427,0.325886 0.484916,0.902094 0.09806,1.639257 z"
         id="path94" /><path
         style="fill:#f9f9f9;fill-opacity:1;stroke-width:0;stroke-dasharray:none"
         d="m 20.641287,17.096285 7.58709,3.849537 0.506865,0.91801 0.03986,1.670081 0.114577,0.547606 1.689648,-1.066883 0.0477,-2.187154 -0.474678,-1.0354 -6.124803,-3.088945 -1.748796,-0.70179 -1.255607,0.391588 -0.571462,0.563657 z"
         id="path93" /><path
         style="fill:#f9f9f9;fill-opacity:1;stroke-width:0;stroke-dasharray:none"
         d="m 31.333929,22.618314 1.695273,-1.320877 -0.0109,-1.268255 -0.331893,-0.775698 -0.947762,-0.972476 -0.600019,-0.273779 c 0,0 -0.388922,0.23831 -0.412814,0.345864 -0.02389,0.107555 -0.519919,0.577632 -0.519919,0.577632 l -0.504526,0.33902 0.642048,1.014354 0.400421,0.774279 -0.06415,0.840239 0.09049,0.737311 z"
         id="path95" /><path
         style="fill:#e6e6e6;fill-opacity:1;stroke-width:0;stroke-dasharray:none"
         d="m 30.839002,17.73841 -0.341987,-0.0891 -0.359116,0.199998 -0.196977,0.365442 -0.407009,0.314276 -0.801333,-0.307313 -0.649494,-0.16404 -0.599776,-0.06973 0.01048,0.426777 1.209236,0.508473 0.901168,0.108082 c 0,0 0.65569,-0.258213 0.687734,-0.352145 0.03205,-0.09393 0.332713,-0.597554 0.332713,-0.597554 z"
         id="path99" /><path
         style="fill:#e6e6e6;fill-opacity:1;stroke-width:0;stroke-dasharray:none"
         d="m 27.271027,16.327771 -0.521406,-0.161113 -0.439792,0.373885 -0.342048,0.206131 -0.554745,-0.0059 -0.546698,-0.14321 -0.474484,0.01135 0.496169,0.582744 0.933088,0.399349 0.737388,-0.163025 z"
         id="path100" /><path
         style="fill:#e6e6e6;fill-opacity:1;stroke-width:0;stroke-dasharray:none"
         d="m 23.822304,24.327803 0.828613,-0.409002 2.001999,-1.121532 c 0,0 0.490339,-0.73698 0.649327,-0.772874 0.158988,-0.03589 1.125894,-0.595629 1.125894,-0.595629 l 0.351404,1.889943 c 0,0 0.04227,0.720073 -0.124508,0.808513 -0.166774,0.08844 -3.818834,2.160127 -3.818834,2.160127 l -0.841253,0.08485 -0.038,-1.145291 z"
         id="path101" /><path
         style="fill:#e6e6e6;fill-opacity:1;stroke-width:0;stroke-dasharray:none"
         d="m 23.457113,26.628494 0.364964,-0.33032 c 0,0 -0.07421,-0.977527 -0.14334,-1.110052 -0.06913,-0.132525 -0.284143,-1.02722 -0.284143,-1.02722 l -1.486759,-0.92085 -3.400102,-1.628286 -1.935493,-0.992381 -1.116179,-0.529352 -0.561913,0.632581 -0.08296,1.05205 0.114022,0.724972 2.180992,1.050752 4.446492,1.799242 0.936398,0.84688 z"
         id="path102" /><path
         style="fill:#e6e6e6;fill-opacity:1;stroke-width:0;stroke-dasharray:none"
         d="m 28.774736,21.737575 0.679106,-0.213798 0.822111,-0.181049 0.37773,-0.381557 0.165412,1.280075 1.98e-4,0.554132 -0.699984,0.706965 -1.06386,0.31423 -0.329584,-1.102778 z"
         id="path103" /><path
         style="fill:#e6e6e6;fill-opacity:1;stroke-width:0;stroke-dasharray:none"
         d="m 30.711981,20.616429 0.69497,-0.569584 0.928386,-0.429578 0.376307,-0.296143 0.457321,0.904902 -0.04778,1.015481 -0.917795,0.494971 -1.010137,0.484862 -0.112246,0.142599 -0.14667,-0.47771 -0.05798,-0.740189 z"
         id="path104" /><path
         style="fill:#2ca05a;fill-opacity:1;stroke:none;stroke-width:0;stroke-dasharray:none;stroke-opacity:1"
         d="m 35.189178,25.934556 c -0.23309,-0.02005 -0.973283,-0.257469 -0.973283,-0.257469 l -0.7752,0.403734 -1.401715,0.665569 -1.299482,1.106107 -1.651836,0.71397 -1.040906,1.008234 -2.213729,0.788213 -1.354204,0.432109 -1.716939,-0.778486 -1.643018,-0.817409 -2.166352,-1.159298 -1.315435,-1.003975 -2.007317,-1.041889 -0.659768,0.151374 0.587393,0.898122 3.621224,2.083104 1.389864,0.741627 2.847851,1.742273 0.953581,0.541764 0.504407,0.126076 1.287235,-0.17531 1.131518,-0.984813 2.646198,-1.475873 1.612585,-0.874165 2.248281,-1.425061 1.087986,-0.935139 z"
         id="path109" /><path
         style="fill:#333333;stroke-width:0;stroke-dasharray:none"
         d="m 24.413582,32.599641 c -0.726726,-0.143107 -0.881799,-0.206836 -1.667733,-0.685372 -0.306468,-0.186601 -1.18298,-0.710093 -1.947805,-1.163317 -0.764826,-0.453224 -1.922494,-1.140674 -2.572595,-1.527667 -1.69715,-1.010283 -2.237216,-1.32657 -2.73483,-1.60164 -1.035326,-0.572305 -1.528393,-1.051763 -1.889568,-1.837415 -0.309845,-0.673994 -0.295173,-0.423925 -0.309588,-5.276904 -0.0072,-2.421947 0.0055,-4.549 0.02822,-4.726784 0.05185,-0.405829 0.25856,-1.011513 0.462118,-1.354072 0.08579,-0.14438 0.303267,-0.410097 0.483271,-0.590482 0.287186,-0.287794 0.542724,-0.456084 2.085888,-1.373701 1.749454,-1.040285 3.200279,-1.895847 4.261671,-2.5131383 0.305931,-0.177924 1.007729,-0.591995 1.559551,-0.920156 1.504551,-0.8947354 2.1131,-1.1016096 3.078039,-1.0463692 0.470235,0.026923 0.981304,0.1769728 1.404729,0.4124364 0.427163,0.2375438 1.018918,0.5876958 1.51323,0.8954068 0.254942,0.158701 0.911997,0.55481 1.460122,0.8802403 0.548124,0.32543 1.36162,0.811814 1.807768,1.080853 0.446149,0.269039 1.071915,0.624091 1.390593,0.789003 0.552076,0.285694 0.880813,0.493803 0.880618,0.557481 -4.9e-5,0.01609 -0.104844,0.10066 -0.232878,0.187924 -0.128033,0.08726 -0.313238,0.254135 -0.411565,0.370824 -0.48585,0.576583 -0.676721,0.839217 -0.802634,1.10441 -0.07564,0.159311 -0.154531,0.300165 -0.175311,0.313007 -0.02078,0.01284 -0.09183,-0.04089 -0.15789,-0.119389 -0.09865,-0.117235 -0.120108,-0.190177 -0.120108,-0.408227 0,-0.337257 0.150006,-0.588332 0.544506,-0.911372 0.227704,-0.186458 0.279313,-0.253819 0.273651,-0.357175 -0.0077,-0.140963 0.0063,-0.137257 -0.482721,-0.127909 -0.299571,0.0057 -0.365995,-0.01 -0.60259,-0.142698 -0.499,-0.279865 -1.377294,-0.799395 -2.838501,-1.679034 -2.081677,-1.2531593 -2.680117,-1.5965463 -2.943419,-1.6889493 -0.347445,-0.121931 -1.106233,-0.110787 -1.529651,0.02247 -0.30479,0.09592 -0.52499,0.215173 -2.039534,1.1045453 -0.331425,0.19462 -1.113633,0.650978 -1.73824,1.014131 -1.539776,0.895242 -4.785505,2.840692 -5.132835,3.07656 -0.337185,0.228978 -0.525425,0.446231 -0.710117,0.819567 -0.244966,0.495173 -0.271724,0.795568 -0.285936,3.209971 -0.0071,1.204612 -0.0025,2.190173 0.01028,2.190135 0.01275,-3.8e-5 0.07883,-0.09913 0.146843,-0.220198 0.424659,-0.755906 0.989092,-1.17946 3.352813,-2.515971 1.299042,-0.734513 1.785727,-1.022191 2.398999,-1.41804 1.115216,-0.719839 1.397439,-0.88308 1.587363,-0.918149 0.101977,-0.01883 0.254453,-0.07668 0.338835,-0.128546 0.08438,-0.05187 0.292971,-0.153092 0.463531,-0.224935 0.256337,-0.107977 0.315185,-0.153238 0.339388,-0.261035 0.0161,-0.07172 0.03175,-0.633004 0.03477,-1.247287 0.0053,-1.080386 0.0023,-1.119762 -0.09215,-1.205179 -0.249109,-0.225289 -0.35035,-0.708513 -0.206657,-0.986384 0.03659,-0.07076 0.151375,-0.205305 0.255075,-0.298993 0.162019,-0.146374 0.219506,-0.170197 0.40859,-0.169322 0.295189,0.0014 0.560013,0.129709 0.767279,0.371854 0.153116,0.17888 0.171205,0.227375 0.170932,0.458238 -3.24e-4,0.273671 -0.08869,0.463178 -0.285035,0.611282 -0.09794,0.07388 -0.100042,0.08811 -0.03989,0.270357 0.0713,0.216031 0.118168,0.262429 0.199795,0.197775 0.08932,-0.07075 1.04111,-0.323095 1.446502,-0.383512 0.593687,-0.08848 1.568614,-0.06546 2.047818,0.04835 0.816878,0.194008 1.756714,0.622254 2.494782,1.136773 0.385087,0.268449 1.251147,1.017737 1.573697,1.361512 l 0.136752,0.145751 -0.07979,0.474483 c -0.04388,0.260966 -0.08149,0.568348 -0.08356,0.683072 -0.0035,0.196056 -0.0059,0.199742 -0.03882,0.06134 -0.03773,-0.158454 -0.75739,-0.965538 -1.206983,-1.353601 -0.879057,-0.758751 -2.124261,-1.418533 -3.022583,-1.601544 -0.230192,-0.0469 -0.60118,-0.07267 -1.042944,-0.07246 -0.700546,3.32e-4 -1.029672,0.05202 -1.755238,0.275669 -0.520785,0.160525 -0.62231,0.217202 -0.62231,0.347407 0,0.142395 0.0022,0.142628 0.234416,0.02419 0.301757,-0.153944 0.62327,-0.195353 0.921525,-0.118684 0.460097,0.118271 2.135272,0.833836 2.325051,0.993164 0.115366,0.09686 0.207022,0.230923 0.260163,0.380545 0.06102,0.171811 0.09998,0.223558 0.152039,0.201942 0.157785,-0.06552 0.541936,-0.156664 0.662456,-0.157178 0.191459,-8.25e-4 0.622525,0.155756 1.400718,0.508773 0.382413,0.173477 0.747443,0.330726 0.811178,0.349444 0.411031,0.120707 0.926976,0.500117 0.927179,0.681819 2.77e-4,0.248792 0.255668,1.026359 0.498821,1.518716 0.251223,0.508695 0.290858,0.560602 0.867161,1.135649 l 0.603906,0.60259 -0.01218,1.628211 -0.01218,1.628211 -0.126885,0.128345 c -0.303778,0.307276 -0.60111,0.378223 -0.877871,0.209472 -0.235716,-0.143724 -0.291957,-0.304368 -0.291957,-0.83393 0,-0.347 -0.0151,-0.465832 -0.05919,-0.465832 -0.03255,0 -0.167062,0.08105 -0.298909,0.180122 -0.131846,0.09907 -0.329444,0.224079 -0.439106,0.277805 -0.109663,0.05373 -0.439264,0.277179 -0.732447,0.496563 -0.777471,0.581768 -1.012987,0.73646 -1.614504,1.060434 -0.560221,0.301734 -1.077984,0.599282 -1.676563,0.963491 -0.191207,0.11634 -0.723108,0.430169 -1.182003,0.697398 -0.458896,0.267229 -1.037835,0.604697 -1.286533,0.74993 -0.248697,0.145232 -0.505945,0.278439 -0.571661,0.296014 l -0.119484,0.03196 0.005,0.879446 0.005,0.879447 -0.22995,0.197 c -0.184648,0.158191 -0.265276,0.197 -0.409272,0.197 -0.181894,0 -0.543291,-0.18901 -0.722269,-0.377745 C 22.9022,28.823779 22.845464,28.32957 22.874564,27.595098 l 0.02588,-0.653204 -0.309558,-0.14363 c -0.170259,-0.079 -0.50772,-0.236014 -0.749915,-0.348925 -0.449332,-0.209499 -1.064187,-0.493071 -2.178579,-1.004785 -0.642116,-0.294851 -2.865576,-1.35254 -3.569185,-1.697843 -0.2167,-0.106348 -0.410782,-0.177764 -0.431291,-0.158702 -0.02051,0.01906 -0.04968,0.303644 -0.06483,0.632405 l -0.02754,0.597747 -0.201444,0.202846 c -0.177818,0.179054 -0.218716,0.199391 -0.348704,0.173393 -0.08099,-0.0162 -0.261638,-0.115808 -0.401434,-0.221355 l -0.254173,-0.191903 0.03052,0.152614 c 0.03845,0.192262 0.515157,0.978293 0.701368,1.156474 0.117189,0.112135 0.782388,0.512904 1.785531,1.075743 0.332592,0.18661 2.754471,1.618949 3.314243,1.960098 1.543938,0.940942 3.420685,2.049036 3.67263,2.168443 0.405469,0.192167 0.721089,0.266829 1.130672,0.267467 0.542617,8.25e-4 0.827908,-0.12436 2.225312,-0.976615 0.924949,-0.56411 1.480058,-0.896724 2.867764,-1.718323 0.497137,-0.294331 1.467074,-0.869211 2.155417,-1.27751 0.688343,-0.408299 1.470551,-0.865147 1.73824,-1.015218 0.571252,-0.320253 0.887957,-0.614555 1.132928,-1.052783 0.34823,-0.62295 0.350376,-0.639993 0.350318,-2.7818 l -5.2e-5,-1.907934 0.512522,0.04282 0.512521,0.04282 -0.01417,2.066244 -0.01417,2.066243 -0.131034,0.370825 c -0.300922,0.851609 -0.80312,1.515592 -1.419218,1.876422 -0.167129,0.09788 -0.950496,0.558115 -1.740816,1.022738 -0.790319,0.464624 -1.687251,0.990791 -1.993181,1.169261 -0.30593,0.17847 -0.608384,0.360604 -0.67212,0.404742 -0.06374,0.04414 -0.460053,0.278824 -0.880708,0.521525 -0.420654,0.242701 -1.244579,0.728616 -1.830945,1.079811 -1.652629,0.989816 -2.022692,1.136161 -2.850714,1.127339 -0.242194,-0.0026 -0.482071,-0.01291 -0.533059,-0.02295 z m -0.865401,-6.935537 c -0.01898,-0.553554 -0.106964,-0.834325 -0.390123,-1.244902 -0.225551,-0.327045 -0.152215,-0.286186 -3.91284,-2.180053 -1.26196,-0.635529 -2.593167,-1.311252 -2.958236,-1.501607 -0.365068,-0.190354 -0.714159,-0.346098 -0.775756,-0.346098 -0.154427,0 -0.346513,0.301561 -0.420367,0.659946 -0.06688,0.324546 -0.01254,0.998931 0.08578,1.064467 0.135368,0.09023 0.92094,0.487293 2.052221,1.037274 0.662848,0.322249 1.611926,0.784097 2.109063,1.026331 0.497136,0.242233 1.425356,0.690421 2.06271,0.995973 0.637355,0.305552 1.367415,0.655987 1.622357,0.778745 0.254942,0.122756 0.481427,0.225039 0.503298,0.227295 0.02187,0.0022 0.03173,-0.230561 0.02189,-0.517371 z m 1.056052,0.334069 c 0.196031,-0.07453 1.863109,-1.063746 2.729594,-1.619694 0.30593,-0.196289 0.664204,-0.416732 0.796165,-0.489875 L 28.36992,23.755618 28.34901,23.08171 c -0.0315,-1.015044 -0.04858,-1.149407 -0.18037,-1.418775 -0.229854,-0.469804 -0.422509,-0.594416 -2.503521,-1.619302 -3.317967,-1.634081 -5.047338,-2.472224 -5.222775,-2.531227 -0.16695,-0.05615 -0.187872,-0.04849 -1.06612,0.390141 -1.075688,0.537246 -3.296696,1.765128 -3.320172,1.835555 -0.0092,0.0276 0.04233,0.07195 0.114511,0.09856 0.192384,0.07091 1.349705,0.629569 1.938819,0.935901 0.280539,0.145876 1.229703,0.627342 2.109253,1.069923 2.770228,1.393953 3.218489,1.639683 3.474638,1.904742 0.515697,0.533635 0.673961,0.945661 0.673961,1.754599 0,0.581522 0.002,0.585701 0.237001,0.496351 z m 5.147991,-2.786203 c 0.27652,-0.184576 0.485033,-0.357195 0.504122,-0.417341 0.05095,-0.160514 -0.02633,-1.702102 -0.09955,-1.986008 -0.03617,-0.140218 -0.142039,-0.365783 -0.235278,-0.501258 -0.364607,-0.529764 -0.457615,-0.581991 -3.982617,-2.236379 -1.817707,-0.853103 -2.173687,-1.012127 -3.264355,-1.458248 -0.725423,-0.296723 -0.735097,-0.2971 -1.235461,-0.04825 -0.233795,0.116278 -0.447598,0.211414 -0.475119,0.211414 -0.166044,0 0.061,0.131772 0.958141,0.55609 2.368971,1.120443 6.112226,3.01237 6.413964,3.241764 0.361712,0.27499 0.651504,0.693675 0.737296,1.06523 0.03239,0.14025 0.0622,0.620775 0.06758,1.089297 0.0053,0.461088 0.01282,0.844788 0.01673,0.852666 0.0096,0.01946 0.05204,-0.0069 0.594546,-0.368982 z m 2.332792,-1.822783 c 0.318677,-0.208093 0.60506,-0.409829 0.636407,-0.448302 0.04136,-0.05077 0.04454,-0.113369 0.01159,-0.228272 -0.02497,-0.08708 -0.0454,-0.334389 -0.0454,-0.549582 0,-0.300445 -0.02219,-0.437089 -0.09558,-0.588703 -0.135485,-0.279875 -0.664895,-0.81147 -0.999096,-1.003219 -0.439082,-0.251925 -0.448772,-0.252201 -0.602568,-0.01715 -0.190824,0.291647 -0.498379,0.61263 -0.722651,0.754207 -0.183152,0.11562 -0.188395,0.125046 -0.103293,0.18572 0.339998,0.242405 0.718407,0.763621 0.831928,1.145891 0.04481,0.150885 0.0689,0.433241 0.0689,0.807428 v 0.575404 l 0.220177,-0.127536 c 0.121097,-0.07015 0.480913,-0.297795 0.79959,-0.505887 z m -2.196614,-2.747571 c 0.271346,-0.289959 0.861768,-1.089037 0.950419,-1.286298 0.06825,-0.151863 0.07246,-0.196345 0.02327,-0.245834 -0.09498,-0.09556 -2.192935,-0.982522 -2.323986,-0.982522 -0.194257,0 -0.404783,0.113523 -0.610706,0.329313 -0.386925,0.405464 -0.712423,0.95294 -0.725814,1.22079 -0.0066,0.132406 0.01255,0.144863 0.665303,0.432219 1.098118,0.48342 1.30947,0.570073 1.552828,0.63665 0.312114,0.08539 0.285648,0.09128 0.468687,-0.104318 z m -3.581151,-1.460121 c 0.627218,-1.008593 0.86434,-1.40649 0.86434,-1.450382 0,-0.09973 -0.161932,-0.200203 -0.695508,-0.43152 -0.293067,-0.127051 -0.720577,-0.315857 -0.950025,-0.41957 -0.448814,-0.20287 -0.605965,-0.227209 -0.801892,-0.124194 -0.304092,0.159887 -0.882249,0.923142 -0.921621,1.216679 -0.0321,0.23937 0.02139,0.281503 0.776903,0.611888 0.342176,0.149633 0.757721,0.331229 0.923433,0.403546 0.165712,0.07232 0.363871,0.16884 0.440354,0.214494 0.18535,0.110638 0.285783,0.104861 0.364016,-0.02094 z m -3.376964,-1.379004 c 0.01575,-0.0255 0.0066,-0.04635 -0.02044,-0.04635 -0.027,0 -0.04909,0.02086 -0.04909,0.04635 0,0.0255 0.0092,0.04636 0.02044,0.04636 0.01125,0 0.03334,-0.02086 0.04909,-0.04636 z"
         id="path73" /><path
         style="fill:#e6e6e6;fill-opacity:1;stroke-width:0;stroke-dasharray:none"
         d="m 22.236354,22.821215 2.439118,-1.534296 1.167711,-0.879382 -0.437996,-0.15373 -1.290038,0.656172 -1.071966,0.785722 -1.084921,0.953119 z"
         id="path96"
         sodipodi:nodetypes="cccccccc" /><path
         style="fill:#e6e6e6;fill-opacity:1;stroke-width:0;stroke-dasharray:none"
         d="m 20.119479,21.794358 2.439118,-1.534296 1.167711,-0.879382 -0.437996,-0.15373 -1.290038,0.656172 -1.071966,0.785722 -1.084921,0.953119 z"
         id="path97"
         sodipodi:nodetypes="cccccccc" /><path
         style="fill:#e6e6e6;fill-opacity:1;stroke-width:0;stroke-dasharray:none"
         d="m 17.93442,20.682971 2.439118,-1.534296 1.167711,-0.879382 -0.437996,-0.15373 -1.290038,0.656172 -1.071966,0.785722 -1.084921,0.953119 z"
         id="path98"
         sodipodi:nodetypes="cccccccc" /></g><text
       xml:space="preserve"
       style="font-size:9.58731px;fill:#00d455;fill-opacity:1;stroke:#000000;stroke-width:0;stroke-dasharray:none;stroke-opacity:1"
       x="8.8256483"
       y="46.049267"
       id="text109"><tspan
         sodipodi:role="line"
         id="tspan109"
         style="font-style:normal;font-variant:normal;font-weight:bold;font-stretch:normal;font-family:Roboto;-inkscape-font-specification:'Roboto Bold';fill:#00d455;stroke:#000000;stroke-width:0;stroke-dasharray:none;stroke-opacity:1"
         x="8.8256483"
         y="46.049267">Wasibook</tspan></text></g></svg>
